<mxfile host="65bd71144e">
    <diagram id="bCHZrmS2TxnS9ojoxymP" name="Page-1">
        <mxGraphModel dx="691" dy="362" grid="1" gridSize="10" guides="1" tooltips="1" connect="1" arrows="1" fold="1" page="1" pageScale="1" pageWidth="850" pageHeight="1100" math="0" shadow="0">
            <root>
                <mxCell id="0"/>
                <mxCell id="1" parent="0"/>
                <mxCell id="6" style="edgeStyle=none;html=1;entryX=0.5;entryY=0;entryDx=0;entryDy=0;" parent="1" source="2" target="5" edge="1">
                    <mxGeometry relative="1" as="geometry"/>
                </mxCell>
                <mxCell id="2" value="Request" style="whiteSpace=wrap;html=1;" parent="1" vertex="1">
                    <mxGeometry x="220" y="10" width="100" height="50" as="geometry"/>
                </mxCell>
                <mxCell id="3" value="User Login" style="whiteSpace=wrap;html=1;" parent="1" vertex="1">
                    <mxGeometry x="50" y="120" width="120" height="60" as="geometry"/>
                </mxCell>
                <mxCell id="4" value="Discord Integration" style="whiteSpace=wrap;html=1;" parent="1" vertex="1">
                    <mxGeometry x="210" y="120" width="120" height="60" as="geometry"/>
                </mxCell>
                <mxCell id="14" value="" style="edgeStyle=none;html=1;" parent="1" source="5" target="13" edge="1">
                    <mxGeometry relative="1" as="geometry"/>
                </mxCell>
                <mxCell id="5" value="MatchMaking" style="whiteSpace=wrap;html=1;" parent="1" vertex="1">
                    <mxGeometry x="380" y="120" width="120" height="60" as="geometry"/>
                </mxCell>
                <mxCell id="7" value="Move User into Matchmaking Pool&amp;nbsp;" style="whiteSpace=wrap;html=1;" parent="1" vertex="1">
                    <mxGeometry x="680" y="280" width="120" height="60" as="geometry"/>
                </mxCell>
                <mxCell id="13" value="1. Game&lt;br&gt;2. Game mode&lt;br&gt;3. How many ppl they want to be matched with&lt;br&gt;4.&amp;nbsp; Type of people" style="shape=process;whiteSpace=wrap;html=1;backgroundOutline=1;" parent="1" vertex="1">
                    <mxGeometry x="340" y="220" width="250" height="120" as="geometry"/>
                </mxCell>
            </root>
        </mxGraphModel>
    </diagram>
</mxfile>